<?xml version="1.0" encoding="utf-8"?>
<!-- Generator: Adobe Illustrator 25.4.1, SVG Export Plug-In . SVG Version: 6.00 Build 0)  -->
<svg version="1.0" id="Layer_1" xmlns="http://www.w3.org/2000/svg" xmlns:xlink="http://www.w3.org/1999/xlink" x="0px" y="0px"
	 viewBox="0 0 388.28 386.89" style="enable-background:new 0 0 388.28 386.89;" xml:space="preserve">
<style type="text/css">
	.st0{fill:#F4F4F5;}
</style>
<g>
	<path class="st0" d="M201.39,250.87c-2.31,1.49-4.95,2.23-7.58,2.23s-5.27-0.74-7.57-2.23L11.69,138.59c0,80.34,0,119.71,0,200.86
		c0.44,1.7,0.82,3.43,1.34,5.11c3.22,10.46,10.11,16.88,20.94,18.96c0.91,0.18,1.78,0.57,2.66,0.87c105,0,210,0,315,0
		c1.59-0.4,3.21-0.74,4.78-1.22c10.58-3.21,17.18-10.07,19.3-21.06c0.18-0.91,0.57-1.78,0.87-2.67c0-81.36,0-120.92,0-201.47
		L201.39,250.87z"/>
	<path class="st0" d="M193.8,222.45l182.78-117.78c0-12.37,0-14.78,0-27.22c-0.44-1.7-0.82-3.43-1.34-5.11
		c-3.22-10.45-10.11-16.88-20.94-18.96c-0.91-0.18-1.78-0.57-2.66-0.87c-105,0-210,0-315,0c-1.59,0.4-3.21,0.74-4.78,1.22
		c-10.59,3.2-17.19,10.07-19.3,21.06c-0.18,0.91-0.57,1.78-0.87,2.67c0,12.66,0,15.27,0,27.85L193.8,222.45z"/>
</g>
</svg>
