<?xml version="1.0" encoding="utf-8"?>
<!-- Generator: Adobe Illustrator 25.4.1, SVG Export Plug-In . SVG Version: 6.00 Build 0)  -->
<svg version="1.0" id="Layer_1" xmlns="http://www.w3.org/2000/svg" xmlns:xlink="http://www.w3.org/1999/xlink" x="0px" y="0px"
	 viewBox="0 0 388.28 386.89" style="enable-background:new 0 0 388.28 386.89;" xml:space="preserve">
<style type="text/css">
	.st0{fill:#F7F7F7;}
</style>
<path class="st0" d="M148.18,331.14c0,11.98,0.15,23.63-0.07,35.27c-0.1,5.14-3.58,8.21-8.79,8.21c-2.28,0-4.69-0.37-6.81-1.18
	C63.12,346.84,21.18,297.07,10.28,223.51c-8.85-59.7,8.91-112.4,51.02-155.63c37.82-38.83,84.74-57.25,139.1-55.62
	c83.12,2.49,154.28,60.14,174.33,140.94c23.02,92.75-28.11,187.98-118.12,219.98c-1.72,0.61-3.49,1.21-5.28,1.42
	c-7.13,0.84-11.1-2.66-11.13-9.93c-0.07-16.34-0.05-32.67-0.01-49.01c0.03-12.99-2.07-25.25-12.16-35.37
	c7.69-1.46,14.88-2.45,21.87-4.21c16.43-4.13,31.56-11.03,42.83-24.1c4.59-5.33,8.45-11.64,11.25-18.11
	c8.22-18.93,10.16-38.87,7.25-59.23c-1.82-12.68-7.46-23.69-15.52-33.59c-1.09-1.34-1.69-4-1.16-5.6
	c4.81-14.47,2.97-28.55-1.67-42.63c-1.11-3.38-3.25-4.62-6.3-4.13c-4.57,0.74-9.39,1.25-13.54,3.11
	c-9.69,4.34-19.13,9.26-28.48,14.3c-2.84,1.53-5.16,2.05-8.38,1.25c-28.33-7.1-56.69-6.94-85.06,0.03c-1.94,0.48-4.46-0.14-6.38-1
	c-12.11-5.4-23.86-11.73-36.25-16.33c-10.19-3.78-12.17-2.03-14.98,8.29c-3.4,12.47-3.86,24.93,0.25,37.4
	c0.46,1.4,0.17,3.74-0.75,4.79C76.84,159.06,73.72,181,76.7,204.28c1.11,8.68,3.18,17.39,6,25.68c9.01,26.5,29.73,39.46,55.37,46.12
	c6.89,1.79,14.01,2.71,21.77,4.16c-6.31,6.82-9.79,14.65-11.26,23.46c-0.17,1.03-1.98,2.15-3.25,2.58
	c-21.63,7.34-38.36,4.57-50.74-16.24c-6.27-10.54-15.2-17.69-27.63-19.3c-2.82-0.37-5.88,1.21-8.83,1.89
	c1.61,2.53,2.63,6.05,4.93,7.41c11.63,6.85,17.89,17.54,22.67,29.51c5.14,12.87,15.2,19.97,28.45,21.34
	C125.19,332.04,136.39,331.14,148.18,331.14z"/>
</svg>
