<?xml version="1.0" encoding="utf-8"?>
<!-- Generator: Adobe Illustrator 25.4.1, SVG Export Plug-In . SVG Version: 6.00 Build 0)  -->
<svg version="1.0" id="Layer_1" xmlns="http://www.w3.org/2000/svg" xmlns:xlink="http://www.w3.org/1999/xlink" x="0px" y="0px"
	 viewBox="0 0 388.28 386.89" style="enable-background:new 0 0 388.28 386.89;" xml:space="preserve">
<style type="text/css">
	.st0{fill:#F7F7F7;}
</style>
<path class="st0" d="M354.3,11.87c-0.91-0.18-1.78-0.57-2.66-0.87c-105,0-210,0-315,0c-1.59,0.4-3.21,0.74-4.78,1.22
	c-10.59,3.2-17.19,10.07-19.3,21.06c-0.18,0.91-0.57,1.78-0.87,2.67c0,105,0,210,0,315c0.44,1.7,0.82,3.43,1.34,5.11
	c3.22,10.46,10.11,16.88,20.94,18.96c0.91,0.18,1.78,0.57,2.66,0.87c105,0,210,0,315,0c1.59-0.4,3.21-0.74,4.78-1.22
	c10.58-3.21,17.18-10.07,19.3-21.06c0.18-0.91,0.57-1.78,0.87-2.67c0-105,0-210,0-315c-0.44-1.7-0.82-3.43-1.34-5.11
	C372.02,20.38,365.13,13.96,354.3,11.87z M114.66,323.33c-15.32-0.12-30.63-0.14-45.95,0.01c-3.42,0.03-4.48-1.06-4.47-4.48
	c0.03-6.98,0.05-13.95,0.06-20.93c0.03-20.93,0.01-41.85,0.01-62.78c0-27.19,0-54.38,0-81.57c0-7.19-0.24-5.99,6.19-6.01
	c13.89-0.06,27.78-0.06,41.67,0c6.97,0.03,6.54-1.25,6.54,6.37c0.01,46.9,0.01,93.8,0.01,140.7c0,8.19-0.11,16.39,0.05,24.58
	C118.83,322.33,117.77,323.35,114.66,323.33z M91.9,122.16c-17.8-0.1-31.98-14.19-31.98-31.77c0-17.34,14.47-31.76,31.75-31.64
	c17.54,0.12,31.47,14.42,31.46,32.27C123.1,108.32,109.13,122.26,91.9,122.16z M323.96,318.15c0,5.11-0.01,5.12-5.12,5.12
	c-14.96,0.01-29.92-0.09-44.89,0.07c-3.44,0.04-4.47-1.09-4.46-4.49c0.11-29.45,0.13-58.9-0.01-88.35
	c-0.02-4.7-0.42-9.52-1.49-14.08c-5.12-21.77-23.49-30.25-43.81-21.98c-12.49,5.08-19.17,15.07-21.22,28.19
	c-0.6,3.84-0.73,7.79-0.74,11.68c-0.06,28.14-0.1,56.29,0.05,84.43c0.02,3.66-1.11,4.64-4.65,4.6c-15.2-0.17-30.4-0.13-45.6-0.02
	c-2.94,0.02-3.84-0.9-3.83-3.86c0.08-56.17,0.06-112.33,0.06-168.5c0-0.94,0.09-1.87,0.17-3.4c4.58,0,8.83,0,13.08,0
	c11.04,0,22.09,0,33.13,0c4.59,0,4.6,0.01,4.6,4.76c0.01,5.99,0,11.99,0,18.81c10.45-13.97,24.05-21.47,39.75-25.21
	c23.35-5.57,44.81-1.72,63.05,14.67c11.08,9.95,17.29,22.84,19.78,37.34c1.33,7.79,2,15.77,2.05,23.68
	C324.1,253.79,323.97,285.97,323.96,318.15z"/>
</svg>
