<?xml version="1.0" encoding="utf-8"?>
<!-- Generator: Adobe Illustrator 25.4.1, SVG Export Plug-In . SVG Version: 6.00 Build 0)  -->
<svg version="1.0" id="Layer_1" xmlns="http://www.w3.org/2000/svg" xmlns:xlink="http://www.w3.org/1999/xlink" x="0px" y="0px"
	 viewBox="0 0 388.28 386.89" style="enable-background:new 0 0 388.28 386.89;" xml:space="preserve">
<style type="text/css">
	.st0{fill:#F2F2F3;}
</style>
<path class="st0" d="M375.24,87.83c-3.22-10.45-10.11-16.88-20.94-18.96c-0.91-0.18-1.78-0.57-2.66-0.87c-21.35,0-42.7,0-64.04,0
	V30.21c0-6.66-5.67-12.06-12.67-12.06H113.35c-7,0-12.67,5.4-12.67,12.06V68c-21.35,0-42.7,0-64.04,0c-1.59,0.4-3.21,0.74-4.78,1.22
	c-10.59,3.2-17.19,10.07-19.3,21.06c-0.18,0.91-0.57,1.78-0.87,2.67c0,44.67,0,79.02,0,111.84h154.85v-14.45
	c0-11.85,9.6-21.45,21.45-21.45h12.29c11.85,0,21.45,9.6,21.45,21.45v14.45h154.85c0-32.81,0-67.17,0-111.84
	C376.14,91.24,375.76,89.51,375.24,87.83z M118.08,39.59c0-2.81,2.39-5.08,5.34-5.08h141.44c2.95,0,5.34,2.28,5.34,5.08V68
	c-50.7,0-101.41,0-152.11,0V39.59z"/>
<path class="st0" d="M221.73,231.89v15.5c0,11.85-9.6,21.45-21.45,21.45h-12.29c-11.85,0-21.45-9.6-21.45-21.45v-15.5H11.69
	c0,35.04,0,71.1,0,119.06c0.44,1.7,0.82,3.43,1.34,5.11c3.22,10.46,10.11,16.88,20.94,18.96c0.91,0.18,1.78,0.57,2.66,0.87
	c105,0,210,0,315,0c1.59-0.4,3.21-0.74,4.78-1.22c10.58-3.21,17.18-10.07,19.3-21.06c0.18-0.91,0.57-1.78,0.87-2.67
	c0-47.96,0-84.02,0-119.06H221.73z"/>
</svg>
