<?xml version="1.0" encoding="utf-8"?>
<!-- Generator: Adobe Illustrator 26.3.1, SVG Export Plug-In . SVG Version: 6.00 Build 0)  -->
<svg version="1.1" id="Layer_1" xmlns="http://www.w3.org/2000/svg" xmlns:xlink="http://www.w3.org/1999/xlink" x="0px" y="0px"
	 viewBox="0 0 418.8 386.9" style="enable-background:new 0 0 418.8 386.9;" xml:space="preserve">
<style type="text/css">
	.st0{fill:#F4F4F5;}
</style>
<g>
	<path class="st0" d="M350.6,131.5c-6.9-2.5-14.2-4.9-21.9-7c2-7.7,3.7-15.2,4.9-22.4c7.6-43.9,0.1-74.9-21.2-87.2
		c-21.3-12.3-51.9-3.3-86.1,25.3c-5.6,4.7-11.3,9.9-17,15.5c-5.7-5.6-11.3-10.8-17-15.5C158.2,11.6,127.6,2.7,106.3,15
		C85,27.3,77.5,58.2,85.2,102.1c1.3,7.3,2.9,14.8,4.9,22.4c-7.7,2.1-15,4.4-21.9,7c-41.9,15.3-64.9,37.3-64.9,61.9
		s23,46.6,64.9,61.9c6.9,2.5,14.2,4.9,21.9,7c-2,7.7-3.7,15.2-4.9,22.4c-7.6,43.9-0.1,74.9,21.2,87.2c6.2,3.6,13.2,5.4,20.9,5.4
		c18.6,0,40.9-10.4,65.2-30.6c5.6-4.7,11.3-9.9,17-15.5c5.7,5.6,11.3,10.8,17,15.5c24.2,20.2,46.6,30.6,65.2,30.6
		c7.7,0,14.7-1.8,20.9-5.4c21.3-12.3,28.8-43.2,21.2-87.2c-1.3-7.3-2.9-14.8-4.9-22.4c7.7-2.1,15-4.4,21.9-7
		c41.9-15.3,64.9-37.3,64.9-61.9S392.4,146.9,350.6,131.5z M299.9,36.6c12.7,7.3,16,37.9,4.4,82.2c-15.1-3-31.2-5.3-48-6.8
		c-9.7-13.8-19.7-26.6-29.9-38.1C259.1,41.7,287.2,29.3,299.9,36.6z M288.8,222.4c3.1,7.5,5.8,14.7,8.2,21.7
		c-7.3,1.4-14.9,2.7-22.9,3.7c2.5-4.1,5-8.4,7.5-12.6C284.1,230.9,286.5,226.6,288.8,222.4z M260,222.7c-5.8,10-11.6,19.4-17.5,28.2
		c-10.6,0.7-21.6,1-33.2,1c-11.5,0-22.6-0.4-33.2-1c-5.9-8.8-11.7-18.2-17.5-28.2c-5.6-9.7-10.8-19.5-15.7-29.2
		c4.8-9.7,10-19.5,15.7-29.2c5.8-10,11.6-19.4,17.5-28.2c10.6-0.7,21.6-1,33.2-1c11.5,0,22.6,0.4,33.2,1
		c5.9,8.8,11.7,18.2,17.5,28.2c5.8,10,11,19.7,15.7,29.2C271,202.9,265.8,212.7,260,222.7z M209.4,294.7c-4.9-5.6-9.8-11.6-14.7-18
		c4.9,0.1,9.8,0.2,14.7,0.2c4.9,0,9.8-0.1,14.7-0.2C219.1,283.1,214.2,289.1,209.4,294.7z M137.1,235.2c2.5,4.3,5,8.5,7.5,12.6
		c-8-1.1-15.6-2.3-22.9-3.7c2.5-7.1,5.2-14.3,8.2-21.7C132.3,226.7,134.7,230.9,137.1,235.2z M130,164.5c-3-7.3-5.8-14.6-8.2-21.7
		c7.3-1.4,14.9-2.7,22.9-3.7c-2.5,4.1-5,8.4-7.5,12.6C134.7,156,132.3,160.2,130,164.5z M209.4,92.2c4.9,5.6,9.8,11.6,14.7,18
		c-4.9-0.1-9.8-0.2-14.7-0.2c-4.9,0-9.8,0.1-14.7,0.2C199.6,103.8,204.5,97.8,209.4,92.2z M281.7,151.7c-2.5-4.3-5-8.5-7.5-12.6
		c8,1.1,15.7,2.3,22.9,3.7c-2.4,7-5.2,14.2-8.2,21.7C286.5,160.3,284.1,156,281.7,151.7z M109.8,97.8c-5.5-31.4-2-54.9,9-61.2
		c2.4-1.4,5.2-2,8.6-2c14.7,0,38.3,13.1,64.8,39.3C182.1,85.5,172,98.3,162.4,112c-16.7,1.5-32.8,3.8-48,6.8
		C112.5,111.6,111,104.6,109.8,97.8z M28.3,193.4c0-14.7,24.9-32.8,69-44.9c4.9,14.6,11,29.7,18.1,44.9
		c-7.1,15.2-13.2,30.3-18.1,44.9C53.1,226.2,28.3,208.1,28.3,193.4z M118.8,350.3c-11-6.4-14.5-29.8-9-61.2c1.2-6.8,2.7-13.8,4.6-21
		c15.1,3,31.2,5.3,48,6.8c9.7,13.8,19.7,26.6,29.9,38.1C159.7,345.1,131.5,357.6,118.8,350.3z M299.9,350.3
		c-12.7,7.3-40.8-5.1-73.4-37.3c10.2-11.6,20.2-24.4,29.9-38.1c16.7-1.5,32.8-3.8,48-6.8C315.9,312.4,312.6,342.9,299.9,350.3z
		 M321.5,238.4c-4.9-14.6-11-29.7-18.1-44.9c7.1-15.2,13.2-30.3,18.1-44.9c44.1,12.1,69,30.3,69,44.9
		C390.5,208.1,365.6,226.2,321.5,238.4z"/>
	<circle class="st0" cx="209.4" cy="193.4" r="30.6"/>
</g>
</svg>
