<?xml version="1.0" encoding="utf-8"?>
<!-- Generator: Adobe Illustrator 26.3.1, SVG Export Plug-In . SVG Version: 6.00 Build 0)  -->
<svg version="1.1" id="Layer_1" xmlns="http://www.w3.org/2000/svg" xmlns:xlink="http://www.w3.org/1999/xlink" x="0px" y="0px"
	 viewBox="0 0 388.3 386.9" style="enable-background:new 0 0 388.3 386.9;" xml:space="preserve">
<style type="text/css">
	.st0{fill:#F7F7F7;}
</style>
<path class="st0" d="M194.1,9.5C92.8,9.7,10.4,92.2,10.4,193.4c0,101.3,82.5,183.8,183.8,183.8c7.8,0,15.7-0.5,23.3-1.5l1.5-0.2
	l0.2-0.1l0.6-0.1c43.4-6,83.4-27.6,112.5-60.9c29.4-33.5,45.6-76.5,45.6-121.1c0-39.1-12.2-76.5-35.2-108l-0.3-0.3
	c-29.2-40-73.9-66.8-122.6-73.7l-2.7-0.4C209.7,10,201.9,9.5,194.1,9.5z M193,363.9c-0.4,0-0.8,0-1.2,0c-0.3,0-0.7,0-1,0h-2.2
	l-0.6-2.1c-5.7-19.1-10.7-38.8-14.9-58.6l-0.8-3.6h49.9l-0.8,3.7c-4.4,19.3-10,39-16.6,58.4l-0.7,2l-2.1,0.1
	c-2.6,0.1-5.2,0.2-7.8,0.2C193.8,363.9,193.4,363.9,193,363.9z M219.1,361l2.3-7.2c5.7-18.1,10.2-35.1,13.9-51.8l0.5-2.4h50.2
	l-3,4.6c-14.3,22-33.6,39.8-57.2,53.1L219.1,361z M173.3,359.2l-6.4-3.8c-22-13-40.2-30.2-53.9-51.1l-3-4.6h48.9l0.5,2.4
	c3.2,16.3,7.3,33.2,11.9,50L173.3,359.2z M144.6,357.6l-16.7-7.1c-24.3-10.3-46.1-26.2-63-46l-4.2-5h34.1l0.9,1.5
	c9.6,17,21.5,31.9,35.5,44.4L144.6,357.6z M258.2,352.8l14.4-14.6c10.8-11,20.1-23.4,27.7-37l0.9-1.5h26.4l-4.3,5
	c-13.4,15.5-29.2,28.4-47.1,38.3L258.2,352.8z M337,286.4h-29.3l1.8-4.2c10.2-24.3,15.6-51,15.9-79.2l0-3h39.1l-0.2,3.2
	c-1.7,29-10.8,57.2-26.5,81.7L337,286.4z M293.1,286.4h-54.6l0.7-3.5c5-27.1,7.9-54,8.6-79.8l0.1-2.9H312l0,3
	c-0.3,29.1-6.6,57.3-18.1,81.6L293.1,286.4z M225,286.4h-55.2l-0.4-2.5c-4.7-27.1-7.4-54.2-8.2-80.7l-0.1-3.1h73.6l-0.1,3.1
	c-0.7,26.4-3.7,53.6-9.1,80.8L225,286.4z M156.3,286.4h-53.6l-0.8-1.7c-11.5-24.3-17.8-52.5-18.1-81.6l0-3h64l0.1,2.9
	c0.7,25.8,3.4,52.7,8,79.9L156.3,286.4z M88,286.4H51.3l-0.9-1.4c-15.6-24.5-24.8-52.8-26.5-81.7l-0.2-3.2h46.7l0,3
	c0.3,28.4,5.6,55,15.8,79.2L88,286.4z M364.6,186.8H325l-0.2-2.8c-2-27.3-8.8-55-19.9-80.2l-1.8-4.2h33.4l0.9,1.4
	c16,24.7,25.3,53.3,27,82.7L364.6,186.8z M311.7,186.8h-63.8l0-3c-0.4-27-3.1-54.2-8-80.7l-0.7-3.6h49.1l0.8,1.7
	c12.4,25.4,20.2,53.8,22.4,82.3L311.7,186.8z M234.6,186.8h-73.8l0-3c0.2-27.3,2.7-54.8,7.3-81.7l0.4-2.5h56.9l0.5,2.4
	c5.4,27.2,8.3,54.7,8.6,81.7L234.6,186.8z M147.6,186.8H84.3l0.3-3.2c2.2-28.7,10-57.2,22.4-82.3l0.8-1.7h47.5l-0.6,3.5
	c-4.5,26.4-6.9,53.6-7.1,80.7L147.6,186.8z M70.9,186.8H23.7l0.2-3.2c1.7-29.3,11-57.9,27-82.7l0.9-1.4h41l-1.8,4.2
	C79.9,129,73,156.7,71.1,184L70.9,186.8z M326.9,86.4h-30.6l-0.9-1.5c-8.5-15-18.2-28.2-28.7-39.2l-11.9-12.5l15.4,7.7
	c20,10,37.6,23.6,52.3,40.5L326.9,86.4z M281.1,86.4h-44.7l-0.5-2.3c-4-17.2-9-34.4-14.9-51.2l-2.7-7.7l7,4.1
	c20.6,12,38.4,29.6,52.9,52.5L281.1,86.4z M222.7,86.4h-51.4l0.8-3.6c4.2-19,9.8-38.4,16.7-57.8l0.6-1.7l1.8-0.2
	c1-0.1,1.9-0.1,2.8-0.1c2.4,0,4.7,0.1,7,0.2l2,0.1l0.7,1.8c7.3,19.2,13.4,38.6,18,57.7L222.7,86.4z M157.8,86.4h-42.9l2.9-4.6
	c13.5-21.4,30.1-38.3,49.1-50.2l7-4.4l-2.6,7.9c-5.3,16.1-9.7,32.6-13.1,49L157.8,86.4z M99.7,86.4H61.4l4.3-5
	c18-20.7,41-36.9,66.4-46.8l14.3-5.6l-11.2,10.6c-13.2,12.5-24.9,27.8-34.7,45.3L99.7,86.4z"/>
</svg>
