<?xml version="1.0" encoding="utf-8"?>
<!-- Generator: Adobe Illustrator 25.4.1, SVG Export Plug-In . SVG Version: 6.00 Build 0)  -->
<svg version="1.0" id="Layer_1" xmlns="http://www.w3.org/2000/svg" xmlns:xlink="http://www.w3.org/1999/xlink" x="0px" y="0px"
	 viewBox="0 0 34.16 45.54" style="enable-background:new 0 0 34.16 45.54;" xml:space="preserve">
<style type="text/css">
	.st0{fill:#295AA6;}
	.st1{fill:#469BD5;}
	.st2{fill:#40403F;}
	.st3{fill:#FFFFFF;}
	.st4{fill:url(#SVGID_1_);}
	.st5{fill:url(#SVGID_00000183240719332892844390000012919426532522188985_);}
	.st6{fill:url(#SVGID_00000021117680880818840780000011956266156886718615_);}
	.st7{opacity:0.05;}
	.st8{fill:#1D1D1B;}
	.st9{fill:url(#SVGID_00000112594439377948181450000016687306649319017868_);}
	.st10{opacity:0.05;fill:#1D1D1B;}
</style>
<g>
	<g>
		<polygon class="st0" points="30.04,41.63 17.08,45.12 4.12,41.63 1.13,9.22 33.04,9.22 		"/>
		<polygon class="st1" points="17.08,11.85 17.08,42.33 17.11,42.34 27.6,39.52 30.02,11.85 		"/>
		<g>
			<polygon class="st2" points="9.73,4.46 9.73,2.53 12.54,2.53 12.54,0.42 7.62,0.42 7.62,6.39 12.54,6.39 12.54,4.46 			"/>
			<path class="st2" d="M17.6,2.53l1.97,0V0.42l-4.92,0c0,0,0,1.06,0,2.11c0.66,0.66,1,0.97,1.96,1.93c-0.56,0-1.96,0-1.96,0v1.93
				l4.92,0V4.46L17.6,2.53z"/>
			<path class="st2" d="M24.58,2.53l1.97,0l0-2.11l-4.93,0c0,0,0,1.06,0,2.11c0.66,0.66,1,0.97,1.96,1.93c-0.56,0-1.96,0-1.96,0
				v1.93l4.93,0V4.46L24.58,2.53z"/>
		</g>
		<g>
			<polygon class="st3" points="17.07,19.95 7.79,23.81 8.1,27.64 17.07,23.8 26.61,19.73 27.01,15.81 			"/>
			
				<linearGradient id="SVGID_1_" gradientUnits="userSpaceOnUse" x1="-22.7495" y1="34.1786" x2="-22.7495" y2="26.4897" gradientTransform="matrix(1 0 0 1 35.1815 -6.5391)">
				<stop  offset="0.3865" style="stop-color:#D9D9D8;stop-opacity:0"/>
				<stop  offset="1" style="stop-color:#D9D9D8"/>
			</linearGradient>
			<polygon class="st4" points="7.79,23.81 8.1,27.64 17.07,23.8 17.07,19.95 			"/>
			
				<linearGradient id="SVGID_00000116220296170335714000000005821919859500999832_" gradientUnits="userSpaceOnUse" x1="-13.1426" y1="30.3436" x2="-13.1426" y2="22.3514" gradientTransform="matrix(1 0 0 1 35.1815 -6.5391)">
				<stop  offset="0.3865" style="stop-color:#D9D9D8;stop-opacity:0"/>
				<stop  offset="1" style="stop-color:#D9D9D8"/>
			</linearGradient>
			<polygon style="fill:url(#SVGID_00000116220296170335714000000005821919859500999832_);" points="27.01,15.81 17.07,19.95 
				17.07,23.8 26.61,19.73 			"/>
			
				<linearGradient id="SVGID_00000167361248608221221260000011411872819581374086_" gradientUnits="userSpaceOnUse" x1="-27.3738" y1="37.6081" x2="-8.9069" y2="37.6081" gradientTransform="matrix(1 0 0 1 35.1815 -6.5391)">
				<stop  offset="0" style="stop-color:#EDEDEC"/>
				<stop  offset="1" style="stop-color:#FFFFFF"/>
			</linearGradient>
			<polygon style="fill:url(#SVGID_00000167361248608221221260000011411872819581374086_);" points="7.81,23.81 8.12,27.64 
				21.88,27.68 21.57,32.78 17.04,34.06 12.69,32.96 12.42,29.79 8.38,29.79 8.91,35.91 17.09,38.32 25.22,35.95 26.27,23.81 			"/>
			<g class="st7">
				<polygon class="st8" points="17.07,23.81 7.79,23.81 8.1,27.64 17.07,27.67 				"/>
				<polygon class="st8" points="17.07,34.05 17.03,34.06 12.67,32.96 12.41,29.79 8.37,29.79 8.89,35.91 17.07,38.32 				"/>
			</g>
			
				<linearGradient id="SVGID_00000037654248580047839320000016768590375872636548_" gradientUnits="userSpaceOnUse" x1="-28.2235" y1="24.3079" x2="-8.1743" y2="24.3079" gradientTransform="matrix(1 0 0 1 35.1815 -6.5391)">
				<stop  offset="0" style="stop-color:#EDEDEC"/>
				<stop  offset="1" style="stop-color:#FFFFFF"/>
			</linearGradient>
			<polygon style="fill:url(#SVGID_00000037654248580047839320000016768590375872636548_);" points="6.96,15.81 27.01,15.81 
				26.61,19.73 7.44,19.73 			"/>
			<polygon class="st10" points="17.07,15.81 6.96,15.81 7.44,19.73 17.07,19.73 			"/>
		</g>
	</g>
</g>
</svg>
