<?xml version="1.0" encoding="utf-8"?>
<!-- Generator: Adobe Illustrator 26.3.1, SVG Export Plug-In . SVG Version: 6.00 Build 0)  -->
<svg version="1.1" id="Layer_1" xmlns="http://www.w3.org/2000/svg" xmlns:xlink="http://www.w3.org/1999/xlink" x="0px" y="0px"
	 viewBox="0 0 75.9 45.5" style="enable-background:new 0 0 75.9 45.5;" xml:space="preserve">
<style type="text/css">
	.st0{fill:#DE4C36;}
</style>
<g>
	<path class="st0" d="M42.1,21.2l-18-18c-1-1-2.7-1-3.8,0l-3.7,3.7l4.7,4.7c1.1-0.4,2.4-0.1,3.2,0.8c0.9,0.9,1.1,2.2,0.8,3.3
		l4.6,4.6c1.1-0.4,2.4-0.1,3.3,0.8c1.2,1.2,1.2,3.2,0,4.5c-1.2,1.2-3.2,1.2-4.5,0c-0.9-0.9-1.2-2.3-0.7-3.4l-4.3-4.3l0,11.2
		c0.3,0.2,0.6,0.4,0.8,0.6c1.2,1.2,1.2,3.2,0,4.5c-1.2,1.2-3.2,1.2-4.5,0c-1.2-1.2-1.2-3.2,0-4.5c0.3-0.3,0.6-0.5,1-0.7V17.6
		c-0.4-0.2-0.7-0.4-1-0.7c-0.9-0.9-1.2-2.3-0.7-3.5l-4.7-4.7L2.4,21.1c-1,1-1,2.7,0,3.8l18,18c1,1,2.7,1,3.8,0L42.1,25
		C43.2,23.9,43.2,22.3,42.1,21.2"/>
	<g>
		<path d="M47.6,15.5c-1,0.8-1.4,1.8-1.4,3.1c0,0.9,0.3,1.6,0.8,2.3c0.5,0.7,1.3,1.1,2.2,1.4v0.1c-1.4,0.3-2,0.9-2,1.7
			c0,0.6,0.4,1.1,1.3,1.5c-2.1,0.6-3.1,1.6-3.1,3.1c0,1.1,0.5,1.9,1.6,2.6c1.1,0.6,2.5,1,4.3,1c1.9,0,3.4-0.3,4.4-1
			c1-0.7,1.5-1.6,1.5-2.9c0-1-0.4-1.8-1.3-2.3c-0.8-0.6-2.2-1-3.9-1.3c-0.7-0.1-1.2-0.2-1.6-0.4c-0.3-0.1-0.5-0.3-0.5-0.6
			c0-0.3,0.1-0.5,0.4-0.6c0.3-0.1,0.8-0.2,1.6-0.3c1.5-0.2,2.6-0.6,3.2-1.3c0.7-0.8,1.1-1.7,1.1-2.6c0-0.4-0.1-0.8-0.2-1.1
			c-0.1-0.3-0.4-0.7-0.7-1.1h2v-2.2h-6.1C49.8,14.3,48.6,14.7,47.6,15.5z M51,27c1.1,0,1.9,0.1,2.5,0.4c0.6,0.3,0.9,0.7,0.9,1.2
			c0,0.5-0.3,0.9-0.8,1.1c-0.5,0.3-1.2,0.4-2.2,0.4c-2.1,0-3.2-0.5-3.2-1.6c0-0.5,0.3-0.8,0.8-1.1C49.6,27.1,50.2,27,51,27z
			 M53.5,18.5c0,0.7-0.2,1.2-0.6,1.6c-0.4,0.4-0.9,0.6-1.6,0.6c-0.6,0-1.2-0.2-1.6-0.6c-0.4-0.4-0.7-0.9-0.7-1.5
			c0-0.6,0.2-1.1,0.7-1.5c0.4-0.4,1-0.6,1.6-0.6c0.6,0,1.1,0.2,1.6,0.6C53.3,17.5,53.5,17.9,53.5,18.5z"/>
		<path d="M72.1,24c-0.6,0-1-0.2-1.3-0.5s-0.5-0.8-0.5-1.3v-5.5h4.1v-2.4h-4.1v-3.1h-1.8c-0.1,2.1-1.2,3.1-3.2,3.3v2.2h1.9v5.7
			c0,1.2,0.4,2.2,1.1,3c0.7,0.7,1.8,1.1,3.1,1.1c1,0,2-0.2,3.2-0.7v-2.5C73.6,23.7,72.8,24,72.1,24z"/>
		<path d="M61.9,12.4c0.6,0,1-0.2,1.4-0.6c0.4-0.4,0.6-0.9,0.6-1.4c0-0.6-0.2-1-0.6-1.4c-0.4-0.4-0.9-0.6-1.4-0.6
			c-0.5,0-1,0.2-1.4,0.6s-0.6,0.9-0.6,1.4c0,0.5,0.2,1,0.6,1.4C60.9,12.1,61.4,12.4,61.9,12.4z"/>
		<polygon points="63.7,16.4 63.7,14.6 60.5,14.6 59.1,14.6 59.1,16.4 60.5,16.4 60.5,24.5 58.8,24.5 58.8,26.4 60.5,26.4 
			63.7,26.4 65.2,26.4 65.2,24.5 63.7,24.5 		"/>
	</g>
</g>
</svg>
