<?xml version="1.0" encoding="utf-8"?>
<!-- Generator: Adobe Illustrator 25.4.1, SVG Export Plug-In . SVG Version: 6.00 Build 0)  -->
<svg version="1.0" id="Layer_1" xmlns="http://www.w3.org/2000/svg" xmlns:xlink="http://www.w3.org/1999/xlink" x="0px" y="0px"
	 viewBox="0 0 34.16 45.54" style="enable-background:new 0 0 34.16 45.54;" xml:space="preserve">
<style type="text/css">
	.st0{fill:#40403F;}
	.st1{fill:#E35026;}
	.st2{fill:#EF672B;}
	.st3{fill:#FFFFFF;}
	.st4{fill:#EBEBEB;}
</style>
<g>
	<g>
		<g>
			<g>
				<path class="st0" d="M4.19,0.4l2.02,0l0,1.99l1.85,0V0.4l2.02,0l0,6.03l-2.02,0V4.41l-1.85,0l0,2.02l-2.02,0L4.19,0.4L4.19,0.4z
					"/>
				<path class="st0" d="M12.72,2.4l-1.78,0l0-2l5.57,0v2l-1.78,0l0,4.03l-2.02,0L12.72,2.4L12.72,2.4z"/>
				<path class="st0" d="M17.4,0.4l2.1,0l1.29,2.12l1.29-2.12l2.1,0l0,6.03l-2.01,0V3.44L20.8,5.58h-0.03l-1.39-2.15v2.99l-1.97,0
					L17.4,0.4z"/>
				<path class="st0" d="M25.2,0.4l2.02,0l0,4.04l2.84,0l0,1.99l-4.85,0L25.2,0.4z"/>
			</g>
		</g>
	</g>
	<g id="Guides_to_delete_00000159461009147351675840000009649030446625148295_">
		<g>
			<polygon class="st1" points="4.08,41.54 1.19,9.07 32.98,9.07 30.08,41.54 17.07,45.15 			"/>
			<polygon class="st2" points="17.08,11.73 17.08,42.39 27.6,39.47 30.08,11.73 			"/>
			<polygon class="st3" points="7.11,15.71 8.18,27.75 21.98,27.75 21.52,32.92 17.08,34.12 12.64,32.92 12.35,29.6 8.35,29.6 
				8.92,35.99 17.08,38.26 25.24,35.99 26.34,23.77 11.82,23.77 11.46,19.69 26.69,19.69 26.7,19.69 27.05,15.71 			"/>
			<g>
				<polygon class="st4" points="17.08,15.71 7.11,15.71 8.18,27.75 17.08,27.75 17.08,23.77 11.82,23.77 11.46,19.69 17.08,19.69 
									"/>
				<polygon class="st4" points="17.08,34.11 17.08,34.12 12.64,32.92 12.35,29.6 8.35,29.6 8.92,35.99 17.08,38.26 17.08,38.26 
									"/>
			</g>
		</g>
	</g>
</g>
</svg>
