<?xml version="1.0" encoding="utf-8"?>
<!-- Generator: Adobe Illustrator 25.4.1, SVG Export Plug-In . SVG Version: 6.00 Build 0)  -->
<svg version="1.0" id="Layer_1" xmlns="http://www.w3.org/2000/svg" xmlns:xlink="http://www.w3.org/1999/xlink" x="0px" y="0px"
	 viewBox="0 0 45.63 45.54" style="enable-background:new 0 0 45.63 45.54;" xml:space="preserve">
<style type="text/css">
	.st0{fill:#F6DF19;}
	.st1{fill:#010101;}
</style>
<g>
	<path class="st0" d="M0-0.05l45.63,0l0,45.63L0,45.59L0-0.05z"/>
	<path class="st1" d="M12,38.09l3.49-2.11c0.67,1.19,1.29,2.21,2.76,2.21c1.41,0,2.3-0.55,2.3-2.7l0-14.58h4.29l0,14.64
		c0,4.44-2.6,6.46-6.4,6.46C15,42.01,13.01,40.23,12,38.09"/>
	<path class="st1" d="M27.16,37.63l3.49-2.02c0.92,1.5,2.11,2.6,4.23,2.6c1.78,0,2.91-0.89,2.91-2.11c0-1.47-1.16-1.99-3.12-2.85
		l-1.07-0.46c-3.09-1.32-5.15-2.97-5.15-6.46c0-3.22,2.45-5.67,6.28-5.67c2.73,0,4.69,0.95,6.1,3.43l-3.34,2.14
		c-0.74-1.32-1.53-1.84-2.76-1.84c-1.26,0-2.05,0.8-2.05,1.84c0,1.29,0.8,1.81,2.63,2.6l1.07,0.46c3.65,1.56,5.7,3.16,5.7,6.74
		c0,3.86-3.03,5.97-7.11,5.97C30.99,42.01,28.42,40.11,27.16,37.63"/>
</g>
</svg>
