<?xml version="1.0" encoding="utf-8"?>
<!-- Generator: Adobe Illustrator 25.4.1, SVG Export Plug-In . SVG Version: 6.00 Build 0)  -->
<svg version="1.0" id="Layer_1" xmlns="http://www.w3.org/2000/svg" xmlns:xlink="http://www.w3.org/1999/xlink" x="0px" y="0px"
	 viewBox="0 0 113.69 45.54" style="enable-background:new 0 0 113.69 45.54;" xml:space="preserve">
<style type="text/css">
	.st0{fill-rule:evenodd;clip-rule:evenodd;fill:#B5B6B6;}
	.st1{fill-rule:evenodd;clip-rule:evenodd;fill:#40403F;}
	.st2{fill-rule:evenodd;clip-rule:evenodd;fill:#FFFFFF;}
	.st3{fill-rule:evenodd;clip-rule:evenodd;fill:#A5A284;}
	.st4{fill-rule:evenodd;clip-rule:evenodd;fill:#499D49;}
	.st5{fill-rule:evenodd;clip-rule:evenodd;fill:#58AA50;}
</style>
<g>
	<g>
		<path class="st0" d="M103.65,19.97c-0.1,0.02-0.2,0.25-0.2,0.37c-0.02,0.82-0.04,2.99-0.04,4.47c0,0.04,0.06,0.12,0.12,0.12
			c0.31,0.02,1.05,0.04,1.68,0.04c0.88,0,1.39-0.12,1.68-0.25c0.74-0.37,1.09-1.17,1.09-2.05c0-1.99-1.39-2.75-3.46-2.75
			C104.37,19.91,103.96,19.91,103.65,19.97L103.65,19.97L103.65,19.97z M108.94,29.13c0-2.03-1.5-3.16-4.2-3.16
			c-0.12,0-0.98-0.02-1.19,0.02c-0.06,0.02-0.14,0.06-0.14,0.12c0,1.45-0.02,3.77,0.04,4.67c0.04,0.39,0.33,0.94,0.68,1.11
			c0.37,0.2,1.21,0.25,1.78,0.25C107.52,32.14,108.94,31.24,108.94,29.13L108.94,29.13L108.94,29.13z M99.47,18.85
			c0.2,0,0.82,0.06,2.4,0.06c1.5,0,2.68-0.04,4.14-0.04c1.78,0,4.24,0.64,4.24,3.3c0,1.31-0.92,2.36-2.13,2.87
			c-0.06,0.02-0.06,0.06,0,0.08c1.72,0.43,3.24,1.5,3.24,3.5c0,1.97-1.23,3.22-3.01,4c-1.09,0.47-2.44,0.64-3.81,0.64
			c-1.05,0-3.85-0.12-5.41-0.08c-0.16-0.06,0.14-0.8,0.29-0.92c0.37-0.02,0.66-0.04,1.05-0.16c0.55-0.14,0.61-0.31,0.7-1.15
			c0.04-0.72,0.04-3.26,0.04-5.06c0-2.48,0.02-4.16,0-4.98c-0.02-0.64-0.25-0.84-0.7-0.96c-0.35-0.06-0.92-0.14-1.39-0.2
			C99,19.63,99.35,18.93,99.47,18.85L99.47,18.85L99.47,18.85z M87.65,31.59c0.49,0.39,1.45,0.55,2.32,0.55
			c1.11,0,2.21-0.2,3.28-1.17c1.09-0.98,1.84-2.5,1.84-4.92c0-2.32-0.88-4.2-2.68-5.31c-1.02-0.64-2.34-0.9-3.85-0.9
			c-0.45,0-0.88,0.02-1.15,0.14c-0.06,0.04-0.2,0.23-0.2,0.33c-0.04,0.41-0.04,3.57-0.04,5.41c0,1.91,0,4.57,0.04,4.88
			C87.2,30.92,87.34,31.39,87.65,31.59L87.65,31.59L87.65,31.59z M83,18.85c0.39,0,1.89,0.06,2.6,0.06c1.29,0,2.21-0.06,4.65-0.06
			c2.05,0,3.77,0.55,5,1.6c1.5,1.29,2.27,3.07,2.27,5.25c0,3.09-1.41,4.88-2.83,5.9c-1.41,1.05-3.26,1.66-5.88,1.66
			c-1.39,0-3.79-0.04-5.78-0.06h-0.02c-0.1-0.18,0.16-0.9,0.33-0.92c0.53-0.06,0.68-0.08,0.94-0.18c0.43-0.16,0.51-0.39,0.57-1.15
			c0.06-1.41,0.04-3.11,0.04-5.04c0-1.37,0.02-4.06-0.02-4.92c-0.06-0.72-0.37-0.9-0.98-1.02c-0.31-0.06-0.72-0.14-1.29-0.2
			C82.53,19.6,82.9,18.97,83,18.85L83,18.85L83,18.85z"/>
		<path class="st1" d="M59.72,32.39c-0.51-0.06-0.88-0.14-1.33-0.35c-0.06-0.04-0.16-0.25-0.16-0.33c-0.04-0.72-0.04-2.77-0.04-4.14
			c0-1.11-0.18-2.07-0.66-2.75c-0.55-0.78-1.35-1.23-2.38-1.23c-0.9,0-2.11,0.61-3.11,1.48c-0.02,0.02-0.18,0.16-0.16-0.06
			c0-0.23,0.04-0.68,0.06-0.98c0.02-0.29-0.14-0.43-0.14-0.43c-0.66,0.33-2.5,0.76-3.18,0.82c-0.49,0.1-0.61,0.57-0.1,0.74h0.02
			c0.55,0.16,0.92,0.35,1.21,0.53c0.2,0.16,0.18,0.39,0.18,0.57c0.02,1.54,0.02,3.89-0.04,5.18c-0.02,0.51-0.16,0.7-0.53,0.78
			l0.04-0.02c-0.29,0.06-0.51,0.12-0.86,0.16c-0.12,0.12-0.12,0.78,0,0.92c0.23,0,1.41-0.06,2.4-0.06c1.35,0,2.05,0.06,2.4,0.06
			c0.14-0.16,0.18-0.78,0.1-0.92c-0.39-0.02-0.68-0.06-0.94-0.14c-0.37-0.08-0.47-0.27-0.49-0.7c-0.04-1.09-0.04-3.38-0.04-4.94
			c0-0.43,0.12-0.64,0.25-0.76c0.47-0.41,1.23-0.7,1.91-0.7c0.66,0,1.09,0.2,1.41,0.47c0.45,0.37,0.59,0.9,0.66,1.29
			c0.1,0.88,0.06,2.62,0.06,4.14c0,0.82-0.06,1.02-0.37,1.13c-0.14,0.06-0.51,0.14-0.94,0.18c-0.14,0.14-0.1,0.78,0,0.92
			c0.59,0,1.29-0.06,2.32-0.06c1.27,0,2.09,0.06,2.42,0.06C59.76,33.15,59.8,32.55,59.72,32.39L59.72,32.39L59.72,32.39z
			 M63.88,24.56c-1.09,0-1.76,0.84-1.76,2.15c0,1.33,0.59,2.87,2.27,2.87c0.29,0,0.82-0.12,1.07-0.41c0.39-0.37,0.66-1.11,0.66-1.89
			C66.11,25.59,65.27,24.56,63.88,24.56L63.88,24.56L63.88,24.56z M63.74,33.62c-0.41,0-0.7,0.12-0.88,0.23
			c-0.86,0.55-1.25,1.09-1.25,1.72c0,0.59,0.23,1.07,0.72,1.48c0.59,0.51,1.41,0.76,2.46,0.76c2.09,0,3.01-1.13,3.01-2.23
			c0-0.78-0.39-1.29-1.19-1.58C66.03,33.74,64.99,33.62,63.74,33.62L63.74,33.62L63.74,33.62z M63.88,38.95
			c-1.25,0-2.15-0.27-2.93-0.86c-0.76-0.57-1.09-1.43-1.09-2.03c0-0.16,0.04-0.61,0.41-1.02c0.23-0.25,0.72-0.72,1.89-1.52
			c0.04-0.02,0.06-0.04,0.06-0.08c0-0.04-0.04-0.08-0.08-0.1c-0.96-0.37-1.25-0.96-1.33-1.29V32c-0.02-0.12-0.06-0.25,0.12-0.37
			c0.14-0.1,0.35-0.23,0.57-0.37c0.35-0.2,0.72-0.43,0.94-0.61c0.04-0.04,0.04-0.08,0.04-0.12c0-0.04-0.04-0.08-0.08-0.1
			c-1.43-0.47-2.15-1.54-2.15-3.14c0-1.05,0.47-1.99,1.31-2.58c0.57-0.45,2.01-1,2.95-1h0.06c0.96,0.02,1.5,0.23,2.25,0.49
			c0.41,0.14,0.8,0.2,1.33,0.2c0.8,0,1.15-0.25,1.43-0.53c0.02,0.04,0.06,0.14,0.08,0.41c0.02,0.27-0.06,0.66-0.27,0.94
			c-0.16,0.23-0.53,0.39-0.9,0.39h-0.1c-0.37-0.04-0.53-0.08-0.53-0.08l-0.08,0.04c-0.02,0.04,0,0.08,0.02,0.14l0.02,0.04
			c0.04,0.18,0.12,0.74,0.12,0.88c0,1.68-0.68,2.42-1.39,2.97c-0.7,0.51-1.5,0.84-2.4,0.92c-0.02,0-0.1,0-0.29,0.02
			c-0.1,0-0.25,0.02-0.27,0.02h-0.02c-0.16,0.04-0.57,0.25-0.57,0.59c0,0.31,0.18,0.68,1.07,0.74c0.18,0.02,0.37,0.02,0.57,0.04
			c1.17,0.08,2.62,0.18,3.3,0.41c0.94,0.35,1.54,1.19,1.54,2.19c0,1.52-1.09,2.93-2.89,3.81C65.72,38.74,64.84,38.95,63.88,38.95
			L63.88,38.95L63.88,38.95z M74.05,24.67c-0.43,0-0.82,0.1-1.11,0.31c-0.8,0.49-1.21,1.48-1.21,2.91c0,2.68,1.35,4.57,3.28,4.57
			c0.57,0,1.02-0.16,1.41-0.49c0.59-0.49,0.9-1.48,0.9-2.85C77.33,26.45,76,24.67,74.05,24.67L74.05,24.67L74.05,24.67z
			 M74.42,33.44c-3.48,0-4.73-2.56-4.73-4.96c0-1.68,0.68-2.97,2.03-3.89c0.96-0.59,2.11-0.92,3.14-0.92c2.66,0,4.53,1.91,4.53,4.65
			c0,1.86-0.74,3.34-2.15,4.24C76.55,33.01,75.38,33.44,74.42,33.44L74.42,33.44L74.42,33.44z M42.44,24.67
			c-0.43,0-0.82,0.1-1.11,0.31c-0.8,0.49-1.21,1.48-1.21,2.91c0,2.68,1.35,4.57,3.28,4.57c0.57,0,1.02-0.16,1.41-0.49
			c0.59-0.49,0.9-1.48,0.9-2.85C45.72,26.45,44.41,24.67,42.44,24.67L42.44,24.67L42.44,24.67z M42.81,33.44
			c-3.48,0-4.73-2.56-4.73-4.96c0-1.68,0.68-2.97,2.03-3.89c0.96-0.59,2.11-0.92,3.14-0.92c2.66,0,4.53,1.91,4.53,4.65
			c0,1.86-0.74,3.34-2.15,4.24C44.96,33.01,43.79,33.44,42.81,33.44L42.81,33.44L42.81,33.44z M20.9,33.23
			c-0.04-0.06-0.08-0.25-0.06-0.47c0-0.16,0.04-0.27,0.06-0.31c0.43-0.06,0.66-0.12,0.9-0.18c0.41-0.1,0.57-0.33,0.59-0.84
			c0.06-1.23,0.06-3.57,0.04-5.18V26.2c0-0.18,0-0.41-0.23-0.57c-0.33-0.2-0.72-0.39-1.23-0.53c-0.18-0.06-0.31-0.16-0.29-0.29
			c0-0.12,0.12-0.27,0.39-0.31c0.68-0.06,2.44-0.49,3.13-0.8c0.04,0.04,0.1,0.16,0.1,0.33l-0.02,0.23
			c-0.02,0.23-0.04,0.49-0.04,0.76c0,0.08,0.08,0.14,0.16,0.14c0.04,0,0.08-0.02,0.12-0.04c1.31-1.02,2.5-1.39,3.11-1.39
			c1,0,1.78,0.47,2.38,1.45c0.04,0.06,0.08,0.08,0.14,0.08c0.04,0,0.1-0.02,0.12-0.06c1.21-0.92,2.42-1.48,3.22-1.48
			c1.91,0,3.03,1.41,3.03,3.81c0,0.68,0,1.56-0.02,2.36c0,0.72-0.02,1.37-0.02,1.84c0,0.1,0.14,0.43,0.37,0.49
			c0.29,0.14,0.68,0.2,1.19,0.29h0.02c0.04,0.14-0.04,0.68-0.12,0.78c-0.12,0-0.31,0-0.51-0.02c-0.39-0.02-0.94-0.04-1.56-0.04
			c-1.27,0-1.93,0.02-2.56,0.06c-0.04-0.16-0.06-0.66,0-0.78c0.37-0.06,0.55-0.12,0.78-0.18c0.41-0.12,0.51-0.31,0.53-0.84
			c0-0.39,0.08-3.71-0.04-4.51c-0.12-0.82-0.74-1.78-2.09-1.78c-0.51,0-1.31,0.2-2.09,0.8c-0.04,0.04-0.08,0.14-0.08,0.2v0.02
			c0.08,0.43,0.08,0.92,0.08,1.68v1.33c0,0.92-0.02,1.78,0,2.44c0,0.45,0.27,0.55,0.49,0.64c0.12,0.02,0.2,0.04,0.31,0.06
			c0.18,0.04,0.37,0.08,0.66,0.14c0.04,0.08,0.04,0.35-0.02,0.57c-0.02,0.12-0.06,0.18-0.08,0.2c-0.7-0.02-1.41-0.04-2.46-0.04
			c-0.31,0-0.84,0.02-1.29,0.02c-0.37,0-0.72,0.02-0.92,0.02c-0.02-0.04-0.06-0.18-0.06-0.41c0-0.18,0.04-0.33,0.08-0.37
			c0.1-0.02,0.18-0.04,0.29-0.04c0.25-0.04,0.45-0.08,0.66-0.12c0.35-0.1,0.47-0.29,0.49-0.74c0.06-1.02,0.12-3.95-0.02-4.69
			c-0.25-1.19-0.92-1.78-2.01-1.78c-0.64,0-1.43,0.31-2.09,0.8c-0.1,0.08-0.18,0.29-0.18,0.47v1.21c0,1.48,0,3.32,0.02,4.12
			c0.02,0.25,0.1,0.53,0.57,0.64c0.1,0.02,0.27,0.06,0.47,0.08l0.37,0.06c0.04,0.12,0.02,0.61-0.06,0.78c-0.2,0-0.45-0.02-0.74-0.02
			c-0.43-0.02-0.98-0.04-1.6-0.04c-0.72,0-1.23,0.02-1.64,0.04C21.37,33.23,21.14,33.23,20.9,33.23L20.9,33.23L20.9,33.23z"/>
		<g>
			<path class="st2" d="M10.12,38.15l-0.84-0.29c0,0,0.1-4.28-1.43-4.59c-1.02-1.19,0.16-50.41,3.85-0.16c0,0-1.27,0.64-1.5,1.72
				C9.96,35.89,10.12,38.15,10.12,38.15L10.12,38.15L10.12,38.15z"/>
			<path class="st3" d="M10.12,38.15l-0.84-0.29c0,0,0.1-4.28-1.43-4.59c-1.02-1.19,0.16-50.41,3.85-0.16c0,0-1.27,0.64-1.5,1.72
				C9.96,35.89,10.12,38.15,10.12,38.15L10.12,38.15L10.12,38.15z"/>
			<path class="st2" d="M10.57,34.01c0,0,7.36-4.84,5.63-14.9c-1.66-7.31-5.57-9.71-6-10.63c-0.47-0.66-0.92-1.8-0.92-1.8
				l0.31,20.35C9.59,27.04,8.95,33.25,10.57,34.01"/>
			<path class="st4" d="M10.57,34.01c0,0,7.36-4.84,5.63-14.9c-1.66-7.31-5.57-9.71-6-10.63c-0.47-0.66-0.92-1.8-0.92-1.8
				l0.31,20.35C9.59,27.04,8.95,33.25,10.57,34.01"/>
			<path class="st2" d="M8.85,34.28c0,0-6.91-4.71-6.5-13.01c0.39-8.3,5.27-12.38,6.21-13.11C9.18,7.5,9.2,7.25,9.24,6.59
				C9.67,7.52,9.59,20.38,9.65,21.9C9.83,27.74,9.32,33.17,8.85,34.28L8.85,34.28L8.85,34.28z"/>
			<path class="st5" d="M8.85,34.28c0,0-6.91-4.71-6.5-13.01c0.39-8.3,5.27-12.38,6.21-13.11C9.18,7.5,9.2,7.25,9.24,6.59
				C9.67,7.52,9.59,20.38,9.65,21.9C9.83,27.74,9.32,33.17,8.85,34.28L8.85,34.28L8.85,34.28z"/>
		</g>
	</g>
</g>
</svg>
