<?xml version="1.0" encoding="utf-8"?>
<!-- Generator: Adobe Illustrator 26.3.1, SVG Export Plug-In . SVG Version: 6.00 Build 0)  -->
<svg version="1.1" id="Layer_1" xmlns="http://www.w3.org/2000/svg" xmlns:xlink="http://www.w3.org/1999/xlink" x="0px" y="0px"
	 viewBox="0 0 75.9 45.5" style="enable-background:new 0 0 75.9 45.5;" xml:space="preserve">
<style type="text/css">
	.st0{fill:#00618A;}
	.st1{fill:#E48E00;}
	.st2{fill-rule:evenodd;clip-rule:evenodd;fill:#00618A;}
	.st3{fill-rule:evenodd;clip-rule:evenodd;fill:#E48E00;}
</style>
<path class="st0" d="M1.5,37.8h2.4v-9.5l3.7,8.3c0.4,1,1,1.4,2.2,1.4s1.8-0.4,2.2-1.4l3.7-8.3v9.5h2.4v-9.5c0-0.9-0.4-1.4-1.1-1.6
	c-1.8-0.6-3-0.1-3.6,1.2l-3.6,8.1l-3.5-8.2c-0.5-1.2-1.8-1.7-3.6-1.2c-0.8,0.2-1.1,0.7-1.1,1.6V37.8z M20.1,30.1h2.4v5.2
	c0,0.3,0.1,0.9,1.4,1c0.7,0,5.2,0,5.2,0v-6.2h2.4c0,0,0,8.5,0,8.5c0,2.1-2.6,2.5-3.8,2.6h-7.6v-1.6l7.6,0c1.5-0.2,1.4-0.9,1.4-1.2
	v-0.6H24c-2.4,0-3.9-1.1-3.9-2.2C20.1,35.4,20.2,30.2,20.1,30.1L20.1,30.1z"/>
<path class="st1" d="M33.4,37.8h6.9c0.8,0,1.6-0.2,2.2-0.5c1-0.5,1.5-1.1,1.5-2v-1.8c0-0.7-0.6-1.3-1.7-1.8
	c-0.6-0.2-1.3-0.4-2.1-0.4h-2.9c-1,0-1.4-0.3-1.5-0.9c0-0.1,0-0.1,0-0.2v-1.1c0-0.1,0-0.1,0-0.2c0.1-0.5,0.4-0.6,1.2-0.7
	c0.1,0,0.2,0,0.2,0h6.8v-1.6h-6.7c-1,0-1.5,0.1-1.9,0.2c-1.4,0.4-2.1,1.2-2.1,2.4v1.4c0,1.1,1.2,2,3.3,2.2c0.2,0,0.5,0,0.7,0h2.5
	c0.1,0,0.2,0,0.3,0c0.8,0.1,1.1,0.2,1.3,0.5c0.1,0.1,0.2,0.3,0.2,0.4v1.4c0,0.2-0.1,0.4-0.3,0.6c-0.2,0.2-0.6,0.3-1,0.3
	c-0.1,0-0.2,0-0.3,0h-6.6L33.4,37.8L33.4,37.8z M59,35c0,1.6,1.2,2.6,3.7,2.8c0.2,0,0.5,0,0.7,0h6.2v-1.6h-6.3
	c-1.4,0-1.9-0.4-1.9-1.2v-8.3H59L59,35L59,35z M45.6,35.1v-5.7c0-1.4,1-2.3,3-2.6c0.2,0,0.4,0,0.6,0h4.6c0.2,0,0.4,0,0.7,0
	c2,0.3,3,1.2,3,2.6v5.7c0,1.2-0.4,1.8-1.4,2.2l2.4,2.1h-2.8l-1.9-1.7l-1.9,0.1h-2.6c-0.4,0-0.9-0.1-1.4-0.2
	C46.3,37.3,45.6,36.5,45.6,35.1L45.6,35.1z M48.2,35c0,0.1,0,0.2,0,0.2c0.1,0.7,0.8,1,1.7,1h2.2l-2-1.8h2.8l1.7,1.6
	c0.3-0.2,0.5-0.4,0.6-0.8c0-0.1,0-0.2,0-0.2v-5.5c0-0.1,0-0.1,0-0.2c-0.1-0.6-0.8-1-1.7-1h-3.6c-1.1,0-1.8,0.5-1.8,1.2L48.2,35
	L48.2,35z"/>
<g>
	<path class="st0" d="M71.8,24.1c-1.5,0-2.6,0.1-3.6,0.5c-0.3,0.1-0.7,0.1-0.8,0.5c0.2,0.2,0.2,0.4,0.3,0.6c0.2,0.4,0.6,0.9,1,1.1
		c0.4,0.3,0.8,0.6,1.2,0.8c0.7,0.4,1.5,0.7,2.2,1.1c0.4,0.3,0.8,0.6,1.2,0.9c0.2,0.1,0.3,0.4,0.6,0.5v0c-0.1-0.2-0.2-0.4-0.3-0.6
		l-0.5-0.5c-0.5-0.7-1.2-1.3-1.9-1.8c-0.6-0.4-1.9-1-2.1-1.6l0,0c0.4,0,0.9-0.2,1.3-0.3c0.6-0.2,1.2-0.1,1.8-0.3l0.9-0.3v-0.2
		c-0.3-0.3-0.6-0.8-0.9-1.1c-0.9-0.8-2-1.6-3-2.3c-0.6-0.4-1.3-0.6-1.9-0.9c-0.2-0.1-0.6-0.2-0.7-0.3c-0.3-0.4-0.5-0.9-0.8-1.4
		c-0.5-1-1-2.1-1.5-3.2c-0.3-0.7-0.5-1.4-0.9-2.1c-1.9-3.1-4-5-7.1-6.9c-0.7-0.4-1.5-0.6-2.3-0.8l-1.4-0.1c-0.3-0.1-0.6-0.5-0.8-0.6
		c-1.1-0.7-3.7-2.1-4.5-0.2c-0.5,1.2,0.7,2.4,1.2,3c0.3,0.4,0.7,0.9,0.9,1.4c0.1,0.3,0.2,0.6,0.3,1c0.3,0.8,0.6,1.7,1,2.5
		c0.2,0.4,0.4,0.8,0.7,1.1c0.2,0.2,0.4,0.3,0.5,0.6c-0.3,0.4-0.3,0.9-0.4,1.4c-0.7,2.1-0.4,4.6,0.5,6.2c0.3,0.5,1,1.5,1.9,1.1
		c0.8-0.3,0.6-1.4,0.9-2.3c0.1-0.2,0-0.4,0.1-0.5v0l0.8,1.5c0.6,0.9,1.5,1.8,2.4,2.5c0.4,0.3,0.8,0.9,1.3,1.1v0h0
		c-0.1-0.2-0.3-0.2-0.4-0.4c-0.3-0.3-0.7-0.7-1-1.1c-0.8-1-1.4-2.2-2.1-3.4c-0.3-0.6-0.5-1.2-0.8-1.8c-0.1-0.2-0.1-0.6-0.3-0.7
		c-0.3,0.4-0.7,0.8-0.9,1.3c-0.3,0.8-0.4,1.8-0.5,2.8c-0.1,0,0,0-0.1,0c-0.6-0.1-0.8-0.7-1-1.3c-0.5-1.3-0.7-3.4-0.2-4.9
		c0.1-0.4,0.7-1.6,0.5-2c-0.1-0.4-0.5-0.6-0.7-0.8c-0.2-0.3-0.5-0.8-0.7-1.2c-0.4-1-0.7-2.2-1.1-3.2c-0.2-0.5-0.6-1-0.9-1.4
		c-0.3-0.5-0.7-0.8-1-1.4c-0.1-0.2-0.2-0.5-0.1-0.8c0-0.1,0.1-0.2,0.3-0.3c0.2-0.2,0.9,0.1,1.2,0.2c0.7,0.3,1.2,0.5,1.8,0.9
		c0.3,0.2,0.5,0.5,0.9,0.6h0.4c0.6,0.1,1.3,0,1.8,0.2c1,0.3,1.8,0.8,2.6,1.3c2.4,1.5,4.4,3.7,5.7,6.3c0.2,0.4,0.3,0.8,0.5,1.3
		c0.4,0.9,0.9,1.8,1.3,2.7c0.4,0.9,0.8,1.7,1.3,2.5c0.3,0.4,1.4,0.6,1.9,0.8c0.4,0.1,0.9,0.3,1.3,0.5c0.6,0.4,1.2,0.8,1.8,1.3
		C70.8,23.3,71.7,23.7,71.8,24.1L71.8,24.1z"/>
	<path class="st2" d="M53,8.1c-0.3,0-0.5,0-0.8,0.1v0h0c0.1,0.3,0.4,0.5,0.6,0.8l0.4,0.9l0,0c0.3-0.2,0.4-0.5,0.4-0.9
		c-0.1-0.1-0.1-0.2-0.2-0.4C53.4,8.4,53.2,8.3,53,8.1L53,8.1z"/>
</g>
<path class="st3" d="M70.8,36.2c0,1.1,0.8,1.8,1.8,1.8s1.8-0.7,1.8-1.8s-0.8-1.8-1.8-1.8S70.8,35.1,70.8,36.2z M73.9,36.2
	c0,0.8-0.6,1.4-1.4,1.4c-0.8,0-1.4-0.6-1.4-1.4s0.6-1.4,1.4-1.4C73.3,34.8,73.9,35.4,73.9,36.2z M73,37.2h0.4l-0.6-0.9
	c0.3,0,0.5-0.2,0.5-0.6c0-0.4-0.3-0.6-0.8-0.6h-0.8v2h0.3v-0.9h0.3L73,37.2L73,37.2z M72.2,36v-0.6h0.4c0.2,0,0.4,0,0.4,0.3
	c0,0.3-0.2,0.3-0.5,0.3L72.2,36L72.2,36z"/>
</svg>
