<?xml version="1.0" encoding="utf-8"?>
<!-- Generator: Adobe Illustrator 26.3.1, SVG Export Plug-In . SVG Version: 6.00 Build 0)  -->
<svg version="1.1" id="Layer_1" xmlns="http://www.w3.org/2000/svg" xmlns:xlink="http://www.w3.org/1999/xlink" x="0px" y="0px"
	 viewBox="0 0 75.9 45.5" style="enable-background:new 0 0 75.9 45.5;" xml:space="preserve">
<g>
	<path d="M56.8,0.6c-5.5,7-10.8,13.7-15.6,20.2l-6.5-9.1h-1.6l7.3,10.2c-2.7,3.6-5.2,7.2-7.6,10.6h1.6l6.7-9.6l6.9,9.6h1.6
		l-7.7-10.7L56.8,0.6z"/>
	<polygon points="65.9,11.7 58.8,11.7 57.2,11.7 50.1,11.7 50.1,13.3 57.2,13.3 57.2,32.5 58.8,32.5 58.8,13.3 65.9,13.3 	"/>
	<polygon points="17.9,11.7 17.9,13.3 17.9,20.9 17.9,22.5 17.9,30.9 17.9,32.5 19.5,32.5 31.9,32.5 31.9,30.9 19.5,30.9 19.5,22.5 
		31.9,22.5 31.9,20.9 19.5,20.9 19.5,13.3 31.9,13.3 31.9,11.7 19.5,11.7 	"/>
	<path d="M2.1,11.7H0.8v20.8h1.6V14.3c4,6.4,16,23,22.2,30.6L2.4,11.7C2.4,11.7,2.3,11.7,2.1,11.7z"/>
	<rect x="65.3" y="31.6" width="0.7" height="0.8"/>
	<path d="M69,30.7c0,0.4,0,0.7-0.1,0.9c-0.1,0.3-0.4,0.4-0.7,0.4c-0.3,0-0.5-0.1-0.6-0.2c-0.1-0.1-0.2-0.4-0.2-0.6v-0.4h-0.7v0.4
		c0,0.5,0.1,0.9,0.4,1.1c0.3,0.2,0.6,0.3,1,0.3c0.7,0,1.1-0.2,1.4-0.7c0.1-0.2,0.2-0.6,0.2-1v-3.6H69V30.7z"/>
	<path d="M74.1,29.9c-0.2-0.1-0.4-0.2-0.8-0.3l-0.7-0.2c-0.5-0.1-0.8-0.2-0.9-0.3c-0.2-0.1-0.3-0.3-0.3-0.6c0-0.2,0.1-0.4,0.3-0.6
		c0.2-0.2,0.5-0.3,0.8-0.3c0.5,0,0.8,0.1,1,0.4c0.1,0.1,0.2,0.4,0.2,0.6h0.7c0-0.6-0.2-1-0.6-1.2c-0.4-0.3-0.8-0.4-1.3-0.4
		c-0.6,0-1,0.1-1.3,0.4c-0.3,0.3-0.5,0.7-0.5,1.1c0,0.4,0.2,0.7,0.5,1c0.2,0.1,0.5,0.2,0.9,0.3l0.7,0.2c0.4,0.1,0.6,0.2,0.8,0.3
		c0.2,0.1,0.3,0.3,0.3,0.6c0,0.4-0.2,0.6-0.6,0.8c-0.2,0.1-0.4,0.1-0.7,0.1c-0.6,0-1-0.2-1.2-0.5c-0.1-0.2-0.2-0.4-0.2-0.7h-0.7
		c0,0.6,0.2,1,0.5,1.3c0.4,0.3,0.8,0.5,1.5,0.5c0.5,0,1-0.1,1.4-0.4c0.4-0.2,0.6-0.7,0.6-1.2C74.6,30.5,74.4,30.1,74.1,29.9z"/>
</g>
</svg>
