<?xml version="1.0" encoding="utf-8"?>
<!-- Generator: Adobe Illustrator 25.4.1, SVG Export Plug-In . SVG Version: 6.00 Build 0)  -->
<svg version="1.0" id="Layer_1" xmlns="http://www.w3.org/2000/svg" xmlns:xlink="http://www.w3.org/1999/xlink" x="0px" y="0px"
	 viewBox="0 0 75.95 45.54" style="enable-background:new 0 0 75.95 45.54;" xml:space="preserve">
<style type="text/css">
	.st0{fill:#529E45;}
	.st1{fill:#40403F;}
	.st2{fill:url(#SVGID_1_);}
	.st3{fill:url(#path-2_00000078762074128672727910000007523250907237119422_);}
	.st4{filter:url(#Adobe_OpacityMaskFilter);}
	.st5{fill:#FFFFFF;}
	.st6{mask:url(#mask-3_00000000901798852662979900000008161213227923795868_);}
	.st7{fill:none;}
	.st8{fill:url(#SVGID_00000164500875028821091120000014006182546174414491_);}
	.st9{filter:url(#Adobe_OpacityMaskFilter_00000117660913414224320840000005882311254241511862_);}
	.st10{mask:url(#mask-3_00000127009923773934711990000000127819934030461869_);}
	.st11{fill-rule:evenodd;clip-rule:evenodd;fill:url(#SVGID_00000098181157943726021970000005240927469375303851_);}
	.st12{fill-rule:evenodd;clip-rule:evenodd;fill:url(#SVGID_00000138539115690323414290000005122504548731642785_);}
	.st13{fill-rule:evenodd;clip-rule:evenodd;fill:url(#SVGID_00000106120684971604484220000005843125184218345615_);}
	.st14{fill-rule:evenodd;clip-rule:evenodd;fill:url(#SVGID_00000151536370457743871840000003506691283151852696_);}
	.st15{fill-rule:evenodd;clip-rule:evenodd;fill:url(#SVGID_00000150065931564920368030000014515276640020885120_);}
</style>
<g>
	<path class="st0" d="M37.57,45.6c-0.25,0-0.49-0.07-0.71-0.19l-2.24-1.33c-0.34-0.19-0.17-0.25-0.07-0.29
		c0.45-0.15,0.54-0.19,1.01-0.45c0.05-0.03,0.12-0.02,0.17,0.02l1.72,1.03c0.07,0.03,0.15,0.03,0.2,0l6.72-3.89
		c0.07-0.03,0.1-0.1,0.1-0.19l0-7.77c0-0.08-0.03-0.15-0.1-0.19l-6.72-3.88c-0.07-0.03-0.15-0.03-0.2,0l-6.72,3.88
		c-0.07,0.03-0.1,0.12-0.1,0.19l0,7.77c0,0.07,0.03,0.15,0.1,0.19l1.84,1.06c0.99,0.51,1.62-0.08,1.62-0.67v-7.67
		c0-0.1,0.08-0.2,0.2-0.2h0.86c0.1,0,0.2,0.08,0.2,0.2l0,7.67c0,1.33-0.72,2.11-1.99,2.11c-0.39,0-0.69,0-1.55-0.42l-1.77-1.01
		c-0.44-0.25-0.71-0.72-0.71-1.23l0-7.77c0-0.51,0.27-0.98,0.71-1.23l6.72-3.89c0.42-0.24,0.99-0.24,1.42,0L45,31.32
		c0.44,0.25,0.71,0.72,0.71,1.23l0,7.77c0,0.51-0.27,0.98-0.71,1.23l-6.72,3.89C38.06,45.54,37.81,45.6,37.57,45.6z M39.64,40.25
		c-2.95,0-3.56-1.35-3.56-2.49c0-0.1,0.08-0.2,0.2-0.2h0.88c0.1,0,0.19,0.07,0.19,0.17c0.13,0.89,0.52,1.33,2.31,1.33
		c1.42,0,2.02-0.32,2.02-1.08c0-0.44-0.17-0.76-2.38-0.98c-1.84-0.19-2.98-0.59-2.98-2.06c0-1.36,1.15-2.17,3.07-2.17
		c2.16,0,3.22,0.74,3.35,2.36c0,0.05-0.02,0.1-0.05,0.15c-0.03,0.03-0.08,0.07-0.13,0.07h-0.88c-0.08,0-0.17-0.07-0.19-0.15
		c-0.2-0.93-0.72-1.23-2.11-1.23c-1.55,0-1.74,0.54-1.74,0.94c0,0.49,0.22,0.64,2.31,0.91c2.07,0.27,3.05,0.66,3.05,2.11
		C43,39.41,41.78,40.25,39.64,40.25z"/>
	<path class="st1" d="M16.71,15.21c0-0.3-0.17-0.59-0.44-0.74l-7.14-4.11c-0.12-0.07-0.25-0.1-0.39-0.12H8.67
		c-0.13,0-0.27,0.05-0.39,0.12l-7.14,4.11c-0.27,0.15-0.44,0.44-0.44,0.74l0.02,11.05c0,0.15,0.08,0.3,0.22,0.37
		c0.13,0.08,0.3,0.08,0.42,0l4.25-2.43c0.27-0.15,0.44-0.44,0.44-0.74l0-5.17c0-0.3,0.17-0.59,0.44-0.74l1.8-1.04
		c0.13-0.08,0.29-0.12,0.44-0.12s0.3,0.03,0.42,0.12l1.8,1.04c0.27,0.15,0.44,0.44,0.44,0.74l0,5.17c0,0.3,0.17,0.59,0.44,0.74
		l4.25,2.43c0.13,0.08,0.3,0.08,0.44,0c0.13-0.07,0.22-0.22,0.22-0.37L16.71,15.21L16.71,15.21z"/>
	<path class="st1" d="M51.05,0c-0.13-0.07-0.3-0.07-0.42,0c-0.13,0.08-0.22,0.22-0.22,0.37v10.95c0,0.1-0.05,0.2-0.15,0.27
		c-0.1,0.05-0.2,0.05-0.3,0l-1.79-1.03c-0.27-0.15-0.59-0.15-0.86,0l-7.14,4.13c-0.27,0.15-0.44,0.44-0.44,0.74l0,8.24
		c0,0.3,0.17,0.59,0.44,0.74l7.14,4.13c0.27,0.15,0.59,0.15,0.86,0l7.14-4.13c0.27-0.15,0.44-0.44,0.44-0.74l0-20.54
		c0-0.32-0.17-0.61-0.44-0.76L51.05,0L51.05,0z M50.4,20.96c0,0.08-0.03,0.15-0.1,0.19l-2.44,1.42c-0.07,0.03-0.15,0.03-0.22,0
		l-2.44-1.42c-0.07-0.03-0.1-0.12-0.1-0.19v-2.83c0-0.08,0.03-0.15,0.1-0.19l2.44-1.42c0.07-0.03,0.15-0.03,0.22,0l2.44,1.42
		c0.07,0.03,0.1,0.12,0.1,0.19V20.96L50.4,20.96z"/>
	<g transform="translate(401.047404, 70.501129)">
		<path class="st1" d="M-326.22-52.44c0.27-0.15,0.42-0.44,0.42-0.74v-2.01c0-0.3-0.17-0.59-0.42-0.74l-7.09-4.11
			c-0.27-0.15-0.59-0.15-0.86,0l-7.14,4.13c-0.27,0.15-0.44,0.44-0.44,0.74v8.24c0,0.3,0.17,0.59,0.44,0.74l7.09,4.04
			c0.27,0.15,0.59,0.15,0.84,0l4.3-2.39c0.13-0.07,0.22-0.22,0.22-0.37c0-0.15-0.08-0.3-0.22-0.37l-7.18-4.13
			c-0.13-0.08-0.22-0.22-0.22-0.37v-2.58c0-0.15,0.08-0.3,0.22-0.37l2.24-1.28c0.13-0.08,0.3-0.08,0.44,0l2.24,1.28
			c0.13,0.08,0.22,0.22,0.22,0.37v2.02c0,0.15,0.08,0.3,0.22,0.37c0.13,0.08,0.3,0.08,0.44,0L-326.22-52.44L-326.22-52.44z"/>
		<linearGradient id="SVGID_1_" gradientUnits="userSpaceOnUse" x1="-335.3008" y1="-51.0922" x2="-332.234" y2="-51.0922">
			<stop  offset="0.0919" style="stop-color:#6FBF4A"/>
			<stop  offset="0.2864" style="stop-color:#67B848"/>
			<stop  offset="0.5968" style="stop-color:#53A045"/>
			<stop  offset="0.8624" style="stop-color:#428840"/>
		</linearGradient>
		<path class="st2" d="M-333.85-52.83c0.05-0.03,0.12-0.03,0.17,0l1.36,0.79c0.05,0.03,0.08,0.08,0.08,0.15v1.58
			c0,0.07-0.03,0.12-0.08,0.15l-1.36,0.79c-0.05,0.03-0.12,0.03-0.17,0l-1.36-0.79c-0.05-0.03-0.08-0.08-0.08-0.15v-1.58
			c0-0.07,0.03-0.12,0.08-0.15L-333.85-52.83L-333.85-52.83z"/>
	</g>
	<g transform="translate(134.067720, 70.501129)">
		<g>
			
				<linearGradient id="path-2_00000057868121349402426590000016225384348424377742_" gradientUnits="userSpaceOnUse" x1="-192.1389" y1="392.9155" x2="-192.1977" y2="392.8101" gradientTransform="matrix(108.9883 -2.588068e-05 -2.948970e-05 -124.1865 20837.9434 48737.8477)">
				<stop  offset="0" style="stop-color:#428840"/>
				<stop  offset="0.3288" style="stop-color:#438C41"/>
				<stop  offset="0.6352" style="stop-color:#429644"/>
				<stop  offset="0.9319" style="stop-color:#41A948"/>
				<stop  offset="1" style="stop-color:#41AF49"/>
			</linearGradient>
			
				<path id="path-2_00000067201834662871907570000010168601685899669382_" style="fill:url(#path-2_00000057868121349402426590000016225384348424377742_);" d="
				M-105.41-60.01c-0.27-0.15-0.59-0.15-0.86,0l-7.09,4.09c-0.27,0.15-0.42,0.44-0.42,0.74v8.21c0,0.3,0.17,0.59,0.42,0.74
				l7.09,4.09c0.27,0.15,0.59,0.15,0.86,0l7.09-4.09c0.27-0.15,0.42-0.44,0.42-0.74v-8.21c0-0.3-0.17-0.59-0.42-0.74L-105.41-60.01
				L-105.41-60.01z"/>
		</g>
		<defs>
			<filter id="Adobe_OpacityMaskFilter" filterUnits="userSpaceOnUse" x="-113.85" y="-60.12" width="16.01" height="18.13">
				<feColorMatrix  type="matrix" values="1 0 0 0 0  0 1 0 0 0  0 0 1 0 0  0 0 0 1 0"/>
			</filter>
		</defs>
		
			<mask maskUnits="userSpaceOnUse" x="-113.85" y="-60.12" width="16.01" height="18.13" id="mask-3_00000000901798852662979900000008161213227923795868_">
			<g class="st4">
				<path id="path-2_00000108306081861128598420000017762174388476032389_" class="st5" d="M-105.41-60.01
					c-0.27-0.15-0.59-0.15-0.86,0l-7.09,4.09c-0.27,0.15-0.42,0.44-0.42,0.74v8.21c0,0.3,0.17,0.59,0.42,0.74l7.09,4.09
					c0.27,0.15,0.59,0.15,0.86,0l7.09-4.09c0.27-0.15,0.42-0.44,0.42-0.74v-8.21c0-0.3-0.17-0.59-0.42-0.74L-105.41-60.01
					L-105.41-60.01z"/>
			</g>
		</mask>
		<g class="st6">
			<path class="st7" d="M-106.29-60.01l-7.11,4.09c-0.27,0.15-0.45,0.44-0.45,0.74v8.21c0,0.2,0.08,0.39,0.22,0.54l7.99-13.68
				C-105.85-60.14-106.08-60.12-106.29-60.01L-106.29-60.01z"/>
			<path class="st7" d="M-105.6-42.04c0.07-0.02,0.13-0.05,0.2-0.08l7.11-4.09c0.27-0.15,0.44-0.44,0.44-0.74v-8.21
				c0-0.22-0.1-0.44-0.25-0.59L-105.6-42.04L-105.6-42.04z"/>
			
				<linearGradient id="SVGID_00000070826884783964135670000008378462340903819395_" gradientUnits="userSpaceOnUse" x1="-192.2037" y1="392.8608" x2="-192.0347" y2="392.9679" gradientTransform="matrix(106.4456 -2.527689e-05 -2.947704e-05 -124.1332 20352.3359 48716.9609)">
				<stop  offset="0.1376" style="stop-color:#428840"/>
				<stop  offset="0.4032" style="stop-color:#53A045"/>
				<stop  offset="0.7136" style="stop-color:#67B848"/>
				<stop  offset="0.9081" style="stop-color:#6FBF4A"/>
			</linearGradient>
			<path style="fill:url(#SVGID_00000070826884783964135670000008378462340903819395_);" d="M-98.3-55.91l-7.13-4.09
				c-0.07-0.03-0.15-0.07-0.22-0.08l-7.99,13.68c0.07,0.08,0.15,0.15,0.24,0.2l7.13,4.09c0.2,0.12,0.44,0.15,0.66,0.08l7.5-13.72
				C-98.16-55.81-98.23-55.86-98.3-55.91L-98.3-55.91z"/>
		</g>
		<defs>
			
				<filter id="Adobe_OpacityMaskFilter_00000112625918344622175580000002574156142975017860_" filterUnits="userSpaceOnUse" x="-113.85" y="-61.51" width="16.23" height="19.73">
				<feColorMatrix  type="matrix" values="1 0 0 0 0  0 1 0 0 0  0 0 1 0 0  0 0 0 1 0"/>
			</filter>
		</defs>
		
			<mask maskUnits="userSpaceOnUse" x="-113.85" y="-61.51" width="16.23" height="19.73" id="mask-3_00000127009923773934711990000000127819934030461869_">
			<g style="filter:url(#Adobe_OpacityMaskFilter_00000112625918344622175580000002574156142975017860_);">
				<path id="path-2_00000083070934883021535410000002964548738419062931_" class="st5" d="M-105.41-60.01
					c-0.27-0.15-0.59-0.15-0.86,0l-7.09,4.09c-0.27,0.15-0.42,0.44-0.42,0.74v8.21c0,0.3,0.17,0.59,0.42,0.74l7.09,4.09
					c0.27,0.15,0.59,0.15,0.86,0l7.09-4.09c0.27-0.15,0.42-0.44,0.42-0.74v-8.21c0-0.3-0.17-0.59-0.42-0.74L-105.41-60.01
					L-105.41-60.01z"/>
			</g>
		</mask>
		<g class="st10">
			<g transform="translate(0.000000, -9.246050)">
				<path class="st7" d="M-97.84-37.72v-8.21c0-0.3-0.19-0.59-0.45-0.74l-7.13-4.09c-0.08-0.05-0.17-0.08-0.27-0.1l7.8,13.33
					C-97.86-37.58-97.84-37.65-97.84-37.72L-97.84-37.72z"/>
				<path class="st7" d="M-113.4-46.67c-0.27,0.15-0.45,0.44-0.45,0.74v8.21c0,0.3,0.2,0.59,0.45,0.74l7.13,4.09
					c0.17,0.1,0.35,0.13,0.56,0.1l-7.63-13.9L-113.4-46.67L-113.4-46.67z"/>
				
					<linearGradient id="SVGID_00000178182392126232347180000010654056649136029068_" gradientUnits="userSpaceOnUse" x1="-342.9668" y1="-545.0309" x2="-328.7635" y2="-545.0309" gradientTransform="matrix(0.9246 0 0 -0.3467 204.5543 -241.2124)">
					<stop  offset="0.0919" style="stop-color:#6FBF4A"/>
					<stop  offset="0.2864" style="stop-color:#67B848"/>
					<stop  offset="0.5968" style="stop-color:#53A045"/>
					<stop  offset="0.8624" style="stop-color:#428840"/>
				</linearGradient>
				<path style="fill-rule:evenodd;clip-rule:evenodd;fill:url(#SVGID_00000178182392126232347180000010654056649136029068_);" d="
					M-106.51-52.26l-0.1,0.05h0.13L-106.51-52.26z"/>
				
					<linearGradient id="SVGID_00000136411621847947033960000005382849443381641377_" gradientUnits="userSpaceOnUse" x1="-192.289" y1="402.115" x2="-192.1346" y2="402.115" gradientTransform="matrix(106.33 -2.524944e-05 -2.950095e-05 -124.2339 20332.0645 49914.4922)">
					<stop  offset="0.0919" style="stop-color:#6FBF4A"/>
					<stop  offset="0.2864" style="stop-color:#67B848"/>
					<stop  offset="0.5968" style="stop-color:#53A045"/>
					<stop  offset="0.8624" style="stop-color:#428840"/>
				</linearGradient>
				<path style="fill-rule:evenodd;clip-rule:evenodd;fill:url(#SVGID_00000136411621847947033960000005382849443381641377_);" d="
					M-98.28-36.98c0.2-0.12,0.35-0.32,0.42-0.54l-7.82-13.35c-0.2-0.03-0.42-0.02-0.61,0.1l-7.08,4.08l7.63,13.92
					c0.1-0.02,0.22-0.05,0.32-0.1L-98.28-36.98L-98.28-36.98z"/>
				
					<linearGradient id="SVGID_00000080200409364554723370000010512124384825747891_" gradientUnits="userSpaceOnUse" x1="-743.5063" y1="106.7648" x2="-729.3031" y2="106.7648" gradientTransform="matrix(0.3467 0 0 -0.809 155.2078 49.2397)">
					<stop  offset="0.0919" style="stop-color:#6FBF4A"/>
					<stop  offset="0.2864" style="stop-color:#67B848"/>
					<stop  offset="0.5968" style="stop-color:#53A045"/>
					<stop  offset="0.8624" style="stop-color:#428840"/>
				</linearGradient>
				<path style="fill-rule:evenodd;clip-rule:evenodd;fill:url(#SVGID_00000080200409364554723370000010512124384825747891_);" d="
					M-97.62-37.11l-0.05-0.08v0.12L-97.62-37.11z"/>
				
					<linearGradient id="SVGID_00000113327088600134606600000011252787568578884516_" gradientUnits="userSpaceOnUse" x1="-194.0787" y1="397.6208" x2="-193.7803" y2="397.6208" gradientTransform="matrix(55.0142 -1.306384e-05 -8.151180e-06 -34.3261 10563.0498 13613.7432)">
					<stop  offset="0.0919" style="stop-color:#6FBF4A"/>
					<stop  offset="0.2864" style="stop-color:#67B848"/>
					<stop  offset="0.5968" style="stop-color:#53A045"/>
					<stop  offset="0.8624" style="stop-color:#428840"/>
				</linearGradient>
				<path style="fill-rule:evenodd;clip-rule:evenodd;fill:url(#SVGID_00000113327088600134606600000011252787568578884516_);" d="
					M-98.28-36.98l-7.11,4.09c-0.1,0.05-0.2,0.08-0.32,0.1l0.13,0.25l7.89-4.57v-0.1l-0.2-0.34C-97.93-37.3-98.08-37.09-98.28-36.98
					L-98.28-36.98z"/>
				
					<linearGradient id="SVGID_00000111877442790034813100000014164878692750959520_" gradientUnits="userSpaceOnUse" x1="-193.7371" y1="398.0015" x2="-193.9211" y2="397.3998" gradientTransform="matrix(55.0142 -1.306384e-05 -8.151180e-06 -34.3261 10563.0498 13613.7432)">
					<stop  offset="0" style="stop-color:#428840"/>
					<stop  offset="0.3288" style="stop-color:#438C41"/>
					<stop  offset="0.6352" style="stop-color:#429644"/>
					<stop  offset="0.9319" style="stop-color:#41A948"/>
					<stop  offset="1" style="stop-color:#41AF49"/>
				</linearGradient>
				<path style="fill-rule:evenodd;clip-rule:evenodd;fill:url(#SVGID_00000111877442790034813100000014164878692750959520_);" d="
					M-98.28-36.98l-7.11,4.09c-0.1,0.05-0.2,0.08-0.32,0.1l0.13,0.25l7.89-4.57v-0.1l-0.2-0.34C-97.93-37.3-98.08-37.09-98.28-36.98
					L-98.28-36.98z"/>
			</g>
		</g>
	</g>
</g>
</svg>
