<?xml version="1.0" encoding="utf-8"?>
<!-- Generator: Adobe Illustrator 25.4.1, SVG Export Plug-In . SVG Version: 6.00 Build 0)  -->
<svg version="1.0" id="Layer_1" xmlns="http://www.w3.org/2000/svg" xmlns:xlink="http://www.w3.org/1999/xlink" x="0px" y="0px"
	 viewBox="0 0 50.92 45.54" style="enable-background:new 0 0 50.92 45.54;" xml:space="preserve">
<style type="text/css">
	.st0{fill:#54C1DE;}
</style>
<g>
	<path class="st0" d="M41.58,14.94c-0.52-0.18-1.06-0.35-1.61-0.51c0.09-0.37,0.17-0.74,0.25-1.1c1.22-5.92,0.42-10.68-2.3-12.25
		c-2.61-1.5-6.88,0.06-11.19,3.82c-0.41,0.36-0.83,0.74-1.25,1.14c-0.28-0.26-0.55-0.52-0.83-0.77c-4.52-4.01-9.05-5.7-11.76-4.13
		c-2.61,1.51-3.38,5.99-2.28,11.6c0.11,0.54,0.23,1.09,0.37,1.66c-0.64,0.18-1.26,0.38-1.85,0.58c-5.3,1.85-8.68,4.74-8.68,7.74
		c0,3.1,3.63,6.21,9.15,8.1c0.44,0.15,0.89,0.29,1.35,0.42c-0.15,0.61-0.28,1.2-0.39,1.79c-1.05,5.51-0.23,9.89,2.37,11.39
		c2.69,1.55,7.19-0.04,11.58-3.88c0.35-0.3,0.7-0.62,1.04-0.96c0.45,0.44,0.9,0.85,1.35,1.23c4.25,3.66,8.45,5.14,11.05,3.63
		c2.68-1.55,3.56-6.25,2.42-11.97c-0.09-0.44-0.19-0.88-0.3-1.34c0.32-0.09,0.63-0.19,0.93-0.29c5.73-1.9,9.47-4.97,9.47-8.11
		C50.47,19.72,46.98,16.8,41.58,14.94z M28.13,6.51c3.69-3.21,7.15-4.48,8.72-3.58c1.68,0.97,2.33,4.86,1.27,9.97
		c-0.07,0.33-0.14,0.66-0.22,0.99c-2.08-0.48-4.33-0.84-6.69-1.06c-1.37-1.96-2.8-3.74-4.23-5.28C27.36,7.2,27.75,6.84,28.13,6.51z
		 M16.35,22.78c0.65-1.35,1.36-2.7,2.13-4.03l0,0c0.77-1.34,1.59-2.63,2.43-3.86c1.49-0.11,3.01-0.17,4.56-0.17h0
		c1.55,0,3.08,0.06,4.56,0.17c0.83,1.22,1.63,2.51,2.41,3.85c0.78,1.35,1.5,2.7,2.16,4.01c-0.65,1.34-1.37,2.7-2.15,4.05
		c-0.78,1.36-1.58,2.65-2.4,3.87c-1.48,0.11-3.02,0.16-4.58,0.16c-1.56,0-3.07-0.05-4.53-0.14c-0.85-1.24-1.67-2.54-2.45-3.88h0
		C17.71,25.47,17,24.12,16.35,22.78z M15.22,25.29c0.45,0.86,0.92,1.73,1.42,2.59h0c0.51,0.88,1.03,1.73,1.57,2.57
		c-1.64-0.18-3.18-0.43-4.61-0.74C14.04,28.28,14.58,26.8,15.22,25.29z M15.21,20.27c-0.62-1.48-1.15-2.93-1.59-4.33
		c1.43-0.32,2.95-0.58,4.54-0.78c-0.53,0.82-1.04,1.66-1.53,2.52v0C16.13,18.54,15.66,19.4,15.21,20.27z M34.29,27.87
		c0.51-0.88,0.99-1.77,1.45-2.65c0.67,1.52,1.23,3,1.68,4.4c-1.45,0.33-3.02,0.6-4.67,0.8C33.27,29.59,33.79,28.74,34.29,27.87z
		 M35.72,20.27c-0.45-0.86-0.93-1.73-1.44-2.6c-0.5-0.86-1-1.69-1.52-2.5c1.6,0.2,3.13,0.47,4.56,0.8
		C36.89,17.34,36.35,18.79,35.72,20.27z M25.48,9.09c0.99,1.07,1.97,2.26,2.94,3.55c-0.98-0.05-1.97-0.07-2.97-0.07
		c-0.99,0-1.97,0.02-2.94,0.07C23.49,11.36,24.48,10.17,25.48,9.09z M13.96,3c1.67-0.97,5.37,0.41,9.27,3.88
		c0.25,0.22,0.5,0.45,0.75,0.69c-1.45,1.56-2.89,3.34-4.26,5.27c-2.35,0.22-4.6,0.57-6.68,1.04c-0.13-0.52-0.25-1.04-0.34-1.54
		C11.76,7.53,12.39,3.91,13.96,3z M11.52,29.19c-0.43-0.12-0.84-0.25-1.23-0.39c-2.44-0.83-4.45-1.92-5.83-3.1
		c-1.24-1.06-1.87-2.12-1.87-2.97c0-1.82,2.72-4.15,7.25-5.72c0.55-0.19,1.12-0.37,1.72-0.54c0.63,2.04,1.45,4.17,2.44,6.32
		C12.98,24.97,12.15,27.13,11.52,29.19z M23.1,38.93c-1.94,1.7-3.89,2.9-5.6,3.51c-1.54,0.54-2.77,0.56-3.51,0.13
		c-1.58-0.91-2.23-4.42-1.34-9.14c0.1-0.54,0.22-1.09,0.37-1.66c2.05,0.45,4.32,0.78,6.74,0.98c1.38,1.95,2.83,3.74,4.29,5.31
		C23.73,38.36,23.42,38.65,23.1,38.93z M25.54,36.51c-1.01-1.09-2.02-2.3-3.01-3.6c0.96,0.04,1.93,0.06,2.93,0.06
		c1.02,0,2.03-0.02,3.02-0.07C27.5,34.23,26.52,35.44,25.54,36.51z M38.52,39.49c-0.3,1.61-0.9,2.68-1.64,3.11
		c-1.58,0.91-4.95-0.27-8.58-3.4c-0.42-0.36-0.84-0.74-1.26-1.15c1.41-1.54,2.82-3.33,4.19-5.32c2.42-0.21,4.7-0.57,6.78-1.04
		c0.1,0.41,0.19,0.82,0.27,1.21C38.78,35.41,38.85,37.7,38.52,39.49z M40.33,28.81c-0.27,0.09-0.55,0.18-0.84,0.26
		c-0.63-2-1.49-4.14-2.53-6.34c1-2.15,1.82-4.25,2.43-6.24c0.51,0.15,1.01,0.3,1.49,0.47c4.63,1.59,7.45,3.95,7.45,5.77
		C48.33,24.66,45.29,27.17,40.33,28.81z"/>
	<circle class="st0" cx="25.46" cy="22.73" r="4.47"/>
</g>
</svg>
